<?xml version="1.0" encoding="utf-8"?>
<!-- Generator: Adobe Illustrator 18.1.1, SVG Export Plug-In . SVG Version: 6.00 Build 0)  -->
<svg version="1.1" id="Layer_2" xmlns="http://www.w3.org/2000/svg" xmlns:xlink="http://www.w3.org/1999/xlink" x="0px" y="0px"
	 viewBox="0 0 864 192.1" enable-background="new 0 0 864 192.1" xml:space="preserve">
<g opacity="0.9">
	<path opacity="0.9" fill="#FFFFFF" d="M410.7,129.7c0,2.2,8.5,0.4,12.6-0.8c-0.2-0.5-0.4-1-0.6-1.5
		C418.8,127.5,410.7,127.8,410.7,129.7z"/>
	<path opacity="0.9" fill="#FFFFFF" d="M564.3,53.6c-4.4,6.6-6,15-6.8,22.7c-0.1,1.3-0.2,2.7-0.3,4c3.3-0.4,6.5-1.5,8.9-3.9
		C572.8,69.9,568.7,60.5,564.3,53.6z"/>
	<path opacity="0.9" fill="#FFFFFF" d="M358.2,171.5c0.6,4.3,4.3,10.6,9.2,10.2c-2.8-6.8-5.6-13.6-8.5-20.4
		C358.1,164.6,357.7,168,358.2,171.5z"/>
	<path opacity="0.9" fill="#FFFFFF" d="M256.7,53.3c-6.3,9.7-8.9,21.7-7.3,33.1C255.2,76.5,260.1,64.2,256.7,53.3z"/>
	<path opacity="0.9" fill="#FFFFFF" d="M136.1,74.8c-0.2-8-5.3-15.4-14.3-12.3c-7,2.4-10.5,10.2-11.7,17
		c-1.9,10.7,1.6,22.2,8.7,30.4C128.6,101.5,136.4,88.1,136.1,74.8z"/>
	<path opacity="0.9" fill="#FFFFFF" d="M508.1,34.3c-5.7,17.8-3.7,37.4,4.8,53.7c0.9-1.7,1.7-3.5,2.3-5.3
		C521,66.4,516.7,48.7,508.1,34.3z"/>
	<path opacity="0.9" fill="#FFFFFF" d="M0,0v192.1h864V0H0z M427.9,132.6c-4.8,2.2-9.8,3.3-15.1,2.7c-2.8-0.3-6.6-0.9-7.7-4
		c-2.5-7.2,9-8.6,15.8-8.9c-4.2-10.5-8.3-21.1-12.5-31.6c-14,11-25.9,24.4-35.3,39.6c-4.6,7.5-8.7,15.4-11.8,23.6
		c4.1,9.5,8.1,19,12,28.6c0.4,0.9-0.2,2.4-1.1,2.8c-9.2,4-17.3-4.2-18.8-13c-1-6.1,0.3-12.4,2.4-18.5c-8-18.3-16.6-36.4-25.7-54.2
		c-4.1,5.6-9,11.2-16.1,12.2c-4.5,0.7-9-0.4-12.2-3.2c-2.8,7.4-9.6,12.8-17.6,14.5c-11.2,2.3-22.1-3.8-29.1-12.2
		c-3.2-3.9-5.7-8.2-7.5-12.7c-0.1,0.2-0.3,0.4-0.4,0.5c-5.2,6.3-12.5,10.9-20.8,10.2c-5.1-0.4-9.7-2.5-12.7-6.3
		c-6.5,8.7-19.7,7.2-25.3-2c-2.4,3.2-5,6.2-7.8,9.1c-1.4,1.4-3.6,0.6-4.2-1.1c-1.2-3.3-2.3-6.7-3.5-10c-2.9,3.2-5.9,6.4-8.8,9.7
		c-1,1.1-3.3,1-3.9-0.5c-2.1-4.8-4.2-9.5-6.2-14.3c-2.3,4.8-4.5,9.5-6.8,14.3c-2.1,4.4-3.9,9.5-7.5,12.8c-6.8,6.4-15.6,1.1-21.3-4.3
		c-14.3,9.9-33,12.1-49.5,6.2c-3-1.1-1.7-5.9,1.3-4.8c14.8,5.3,31.6,3.7,44.6-5.1c-9.7-11.5-13.1-28.3-7.2-42.3
		c3-6.9,8.7-12.9,16.5-13.7c8-0.8,14.4,4.3,16.3,12c4,16-6.2,34.4-18.1,44.6c0.4,0.3,0.7,0.6,1.1,0.9c3.4,2.7,8.7,6.4,12.7,3
		c2.4-2.1,3.7-5.5,5.1-8.4c3.6-7.5,7.1-15,10.7-22.5c0.8-1.6,3.6-1.7,4.3,0c2.3,5.3,4.6,10.5,6.9,15.8c3-3.3,6-6.6,9-9.9
		c1.4-1.5,3.6-0.6,4.2,1.1c1.2,3.3,2.4,6.7,3.5,10c2.5-2.8,4.8-5.8,7-8.9c1.2-1.7,4-1.6,4.6,0.6c2.6,9.6,16,12.5,19.8,2
		c0.9-2.4,3.9-2.3,4.8,0c2.4,6.2,9.9,8,15.8,6.7c6-1.4,10.6-6.3,14-11.2c-4-15.7-0.2-33.2,9.9-46.2c1-1.2,3.2-0.8,3.9,0.5
		c7.6,14.5,0.7,33.3-8.4,46.7c1,3.3,2.5,6.6,4.3,9.6c5.1,8.3,13.9,15.7,24.1,15.7c8.9-0.1,17.9-6.7,18.5-15.9
		c0.2-2.9,3.9-3.3,4.9-0.7c2.1,5.5,9.4,6,14,3.6c5-2.7,8.3-7.6,11.3-12.2c1-1.5,3.4-1.8,4.3,0c9.1,17.7,17.7,35.7,25.8,53.9
		c1.3-2.9,2.7-5.7,4-8.3c10.8-21.5,26.6-40,45.7-54.5c1.4-1.1,3.2,0.2,3.7,1.5c5.7,14.5,11.5,29,17.2,43.5
		C429.4,130.7,428.8,132.2,427.9,132.6z M740.6,81.2c-20.9,10.8-41.6,22.2-61.9,34.1c-1.4,0.8-2.8,1.7-4.3,2.5
		c4.1,11.6,7.7,23.3,10.8,35.1c0.4,1.5-0.8,3.3-2.4,3.2c-10.8-0.6-24.6-4.2-31.8-13c-7.1-8.8,1.3-17.6,8.7-22.3
		c2.8-1.8,5.7-3.6,8.6-5.4c-2.7-7.4-5.5-14.7-8.6-22c-4.1,1.9-8.4,2.2-12.9,1c-1.4-0.4-2.5-2.3-1.5-3.7c1.6-2.1,3.1-4.3,4.7-6.4
		c-9.4,3-19.2,4.9-29,5.5c0,1.3-0.1,2.6-0.5,4.1c-1.8,6.6-8.1,11.7-15.1,9.9c-3.5-0.9-6.3-3-8.2-5.8c-2.2,5.5-5.6,10.5-10.8,13.5
		c-8.1,4.6-17.8,2.2-24.5-3.8c-6.5-5.8-9.1-14-9.7-22.4c-2.3-0.1-4.7-0.4-7-0.6c-2.4-0.3-4.8-0.6-7.2-0.8c-3.5-0.2-5-0.2-5.5,3.5
		c-1,7.5-1.5,15.1-7,20.8c-1,1-2.6,0.9-3.5,0c-3.5-3.4-6.6-7.1-9.3-11.1c-8.5,10.8-21.6,17.9-35.6,16.8c-3.2-0.2-3.2-5.2,0-5
		c13.1,1,25.3-5.9,32.8-16.3C498.7,73.4,496.5,49.1,505,28c0.8-2,3.3-2.5,4.6-0.6c11.5,16.8,17.7,39.3,9.6,58.9
		c-1,2.3-2.1,4.5-3.4,6.7c2.3,3.6,4.9,6.9,7.8,10c3.9-5.8,2.5-12.7,4.5-19.3c2-6.5,10.2-4.6,15.3-4c2.7,0.3,5.7,0.8,8.8,0.9
		c0-0.8,0.1-1.6,0.1-2.5c0.8-10.8,3.2-22.1,10.4-30.5c1.1-1.3,3.1-0.7,3.9,0.5c5,7.1,9.6,15.5,7.3,24.5c-1.9,7.2-8.1,11.5-15.2,12.6
		c-0.5,0.1-1,0.1-1.5,0.2c0.4,6.2,2,12.3,6.2,17c5.4,6.1,14.4,9.3,21.6,4.3c5.9-4.1,8.5-11.4,9.8-18.2c0.1-0.5,0.2-1.1,0.3-1.6
		c0.1-0.3,0.2-0.5,0.3-0.8c0-0.2,0.1-0.3,0.2-0.5c5.1-10.8,19.9-9.2,24.3-0.6c12.4-0.8,24.6-3.5,36.3-8c2-0.8,4.1,2,2.8,3.7
		c-2.3,3.2-4.6,6.4-7,9.6c2.7,0,5.3-0.8,7.8-2.4c1-0.7,2.9-0.3,3.4,0.9c3.4,8,6.6,16,9.5,24.1c21.3-12.8,43.3-24.6,65.3-35.9
		C740.9,75.4,743.5,79.7,740.6,81.2z"/>
	<path opacity="0.9" fill="#FFFFFF" d="M663,124.7c-4,2.5-10.9,7-9.4,12.7c1.3,4.8,8.2,7.9,12.4,9.8c4.3,1.9,8.9,3.1,13.6,3.6
		c-2.8-10.2-5.9-20.4-9.4-30.4C667.7,121.8,665.3,123.2,663,124.7z"/>
	<path opacity="0.9" fill="#FFFFFF" d="M599.7,89.5c-0.3,4.9,3.7,10.1,9,9.8c4.1-0.2,7-4.3,7.4-8.2c0-0.3,0-0.7,0-1
		C610.7,90.3,605.2,90.1,599.7,89.5z"/>
	<path opacity="0.9" fill="#FFFFFF" d="M614.2,85.2c-2.8-2.8-8-2.9-11.5-0.4C606.5,85.1,610.3,85.2,614.2,85.2z"/>
</g>
</svg>
